{
	"asset":{
		"generator":"Khronos glTF Blender I/O v3.5.30",
		"version":"2.0"
	},
	"scene":0,
	"scenes":[
		{
			"name":"Scene",
			"nodes":[
				0,
				1,
				2,
				3
			]
		}
	],
	"nodes":[
		{
			"mesh":0,
			"name":"Cube",
			"scale":[
				0.936370313167572,
				1.0703364610671997,
				0.7385416626930237
			],
			"translation":[
				-0.0005537867546081543,
				5.179599761962891,
				0.8878796100616455
			]
		},
		{
			"mesh":1,
			"name":"Cube.001",
			"scale":[
				1.3121050596237183,
				1.041537880897522,
				1
			],
			"translation":[
				0.020622849464416504,
				7.168187618255615,
				0.5818134546279907
			]
		},
		{
			"mesh":2,
			"name":"Sphere",
			"scale":[
				0.06267046183347702,
				0.022009802982211113,
				0.09791146218776703
			],
			"translation":[
				0.022529304027557373,
				6.272944927215576,
				-0.07856246829032898
			]
		},
		{
			"mesh":3,
			"name":"Cone",
			"rotation":[
				0,
				0,
				-0.9999580383300781,
				0.009160315617918968
			],
			"scale":[
				0.029916487634181976,
				0.029916487634181976,
				0.029916465282440186
			],
			"translation":[
				0.96370929479599,
				6.37069845199585,
				-0.19469726085662842
			]
		}
	],
	"materials":[
		{
			"doubleSided":true,
			"name":"Material.004",
			"pbrMetallicRoughness":{
				"baseColorTexture":{
					"index":0
				},
				"metallicFactor":0,
				"roughnessFactor":0.5
			}
		},
		{
			"doubleSided":true,
			"name":"Material.001",
			"pbrMetallicRoughness":{
				"baseColorTexture":{
					"index":1
				},
				"metallicFactor":0,
				"roughnessFactor":0.5
			}
		},
		{
			"doubleSided":true,
			"name":"Material.002",
			"pbrMetallicRoughness":{
				"baseColorTexture":{
					"index":2
				},
				"metallicFactor":0,
				"roughnessFactor":0.5
			}
		},
		{
			"doubleSided":true,
			"name":"Material.003",
			"pbrMetallicRoughness":{
				"baseColorTexture":{
					"index":3
				},
				"metallicFactor":0,
				"roughnessFactor":0.5
			}
		}
	],
	"meshes":[
		{
			"name":"Cube.002",
			"primitives":[
				{
					"attributes":{
						"POSITION":0,
						"TEXCOORD_0":1,
						"NORMAL":2
					},
					"indices":3,
					"material":0
				}
			]
		},
		{
			"name":"Cube.003",
			"primitives":[
				{
					"attributes":{
						"POSITION":4,
						"TEXCOORD_0":5,
						"NORMAL":6
					},
					"indices":7,
					"material":1
				}
			]
		},
		{
			"name":"Sphere",
			"primitives":[
				{
					"attributes":{
						"POSITION":8,
						"TEXCOORD_0":9,
						"NORMAL":10
					},
					"indices":11,
					"material":2
				}
			]
		},
		{
			"name":"Cone",
			"primitives":[
				{
					"attributes":{
						"POSITION":12,
						"TEXCOORD_0":13,
						"NORMAL":14
					},
					"indices":15,
					"material":3
				}
			]
		}
	],
	"textures":[
		{
			"sampler":0,
			"source":0
		},
		{
			"sampler":0,
			"source":0
		},
		{
			"sampler":0,
			"source":0
		},
		{
			"sampler":0,
			"source":0
		}
	],
	"images":[
		{
			"bufferView":4,
			"mimeType":"image/jpeg",
			"name":"Cute-Baby-Dragon-Clipart-Fantasy-Art-Graphics-63500793-4-580x435"
		}
	],
	"accessors":[
		{
			"bufferView":0,
			"componentType":5126,
			"count":1103,
			"max":[
				0.0018634125590324402,
				0.8395062685012817,
				2.190661668777466
			],
			"min":[
				-1.8054018020629883,
				-0.9177296757698059,
				-1.2155207395553589
			],
			"type":"VEC3"
		},
		{
			"bufferView":1,
			"componentType":5126,
			"count":1103,
			"type":"VEC2"
		},
		{
			"bufferView":2,
			"componentType":5126,
			"count":1103,
			"type":"VEC3"
		},
		{
			"bufferView":3,
			"componentType":5123,
			"count":4836,
			"type":"SCALAR"
		},
		{
			"bufferView":5,
			"componentType":5126,
			"count":1022,
			"max":[
				0.057013947516679764,
				1.231094241142273,
				1.2398691177368164
			],
			"min":[
				-1.2198518514633179,
				-1.2952252626419067,
				-0.8636399507522583
			],
			"type":"VEC3"
		},
		{
			"bufferView":6,
			"componentType":5126,
			"count":1022,
			"type":"VEC2"
		},
		{
			"bufferView":7,
			"componentType":5126,
			"count":1022,
			"type":"VEC3"
		},
		{
			"bufferView":8,
			"componentType":5123,
			"count":3963,
			"type":"SCALAR"
		},
		{
			"bufferView":9,
			"componentType":5126,
			"count":2440,
			"max":[
				0.9872310161590576,
				0.9975767135620117,
				0.9872307181358337
			],
			"min":[
				-0.9872305393218994,
				-0.9975767135620117,
				-0.9872310161590576
			],
			"type":"VEC3"
		},
		{
			"bufferView":10,
			"componentType":5126,
			"count":2440,
			"type":"VEC2"
		},
		{
			"bufferView":11,
			"componentType":5126,
			"count":2440,
			"type":"VEC3"
		},
		{
			"bufferView":12,
			"componentType":5123,
			"count":11904,
			"type":"SCALAR"
		},
		{
			"bufferView":13,
			"componentType":5126,
			"count":128,
			"max":[
				29.675180435180664,
				3.192192554473877,
				2.7639896869659424
			],
			"min":[
				28.508630752563477,
				1.9026378393173218,
				1.5745949745178223
			],
			"type":"VEC3"
		},
		{
			"bufferView":14,
			"componentType":5126,
			"count":128,
			"type":"VEC2"
		},
		{
			"bufferView":15,
			"componentType":5126,
			"count":128,
			"type":"VEC3"
		},
		{
			"bufferView":16,
			"componentType":5123,
			"count":186,
			"type":"SCALAR"
		}
	],
	"bufferViews":[
		{
			"buffer":0,
			"byteLength":13236,
			"byteOffset":0,
			"target":34962
		},
		{
			"buffer":0,
			"byteLength":8824,
			"byteOffset":13236,
			"target":34962
		},
		{
			"buffer":0,
			"byteLength":13236,
			"byteOffset":22060,
			"target":34962
		},
		{
			"buffer":0,
			"byteLength":9672,
			"byteOffset":35296,
			"target":34963
		},
		{
			"buffer":0,
			"byteLength":53937,
			"byteOffset":44968
		},
		{
			"buffer":0,
			"byteLength":12264,
			"byteOffset":98908,
			"target":34962
		},
		{
			"buffer":0,
			"byteLength":8176,
			"byteOffset":111172,
			"target":34962
		},
		{
			"buffer":0,
			"byteLength":12264,
			"byteOffset":119348,
			"target":34962
		},
		{
			"buffer":0,
			"byteLength":7926,
			"byteOffset":131612,
			"target":34963
		},
		{
			"buffer":0,
			"byteLength":29280,
			"byteOffset":139540,
			"target":34962
		},
		{
			"buffer":0,
			"byteLength":19520,
			"byteOffset":168820,
			"target":34962
		},
		{
			"buffer":0,
			"byteLength":29280,
			"byteOffset":188340,
			"target":34962
		},
		{
			"buffer":0,
			"byteLength":23808,
			"byteOffset":217620,
			"target":34963
		},
		{
			"buffer":0,
			"byteLength":1536,
			"byteOffset":241428,
			"target":34962
		},
		{
			"buffer":0,
			"byteLength":1024,
			"byteOffset":242964,
			"target":34962
		},
		{
			"buffer":0,
			"byteLength":1536,
			"byteOffset":243988,
			"target":34962
		},
		{
			"buffer":0,
			"byteLength":372,
			"byteOffset":245524,
			"target":34963
		}
	],
	"samplers":[
		{
			"magFilter":9729,
			"minFilter":9987
		}
	],
	"buffers":[
		{
			"byteLength":245896,
			"uri":"data:application/octet-stream;base64,"
		}
	]
}
