{
	"asset":{
		"generator":"Khronos glTF Blender I/O v3.5.30",
		"version":"2.0"
	},
	"scene":0,
	"scenes":[
		{
			"name":"Scene",
			"nodes":[
				0,
				1,
				2,
				3
			]
		}
	],
	"nodes":[
		{
			"mesh":0,
			"name":"Cube",
			"scale":[
				0.936370313167572,
				1.0703364610671997,
				0.7385416626930237
			],
			"translation":[
				-0.0005537867546081543,
				5.179599761962891,
				0.8878796100616455
			]
		},
		{
			"mesh":1,
			"name":"Cube.001",
			"scale":[
				1.3121050596237183,
				1.041537880897522,
				1
			],
			"translation":[
				0.020622849464416504,
				7.168187618255615,
				0.5818134546279907
			]
		},
		{
			"mesh":2,
			"name":"Sphere",
			"scale":[
				0.06267046183347702,
				0.022009802982211113,
				0.09791146218776703
			],
			"translation":[
				0.022529304027557373,
				6.272944927215576,
				-0.07856246829032898
			]
		},
		{
			"mesh":3,
			"name":"Cone",
			"rotation":[
				0,
				0,
				-0.9999580383300781,
				0.009160315617918968
			],
			"scale":[
				0.029916487634181976,
				0.029916487634181976,
				0.029916465282440186
			],
			"translation":[
				0.96370929479599,
				6.37069845199585,
				-0.19469726085662842
			]
		}
	],
	"materials":[
		{
			"doubleSided":true,
			"name":"Material.004",
			"pbrMetallicRoughness":{
				"baseColorTexture":{
					"index":0
				},
				"metallicFactor":0,
				"roughnessFactor":0.5
			}
		},
		{
			"doubleSided":true,
			"name":"Material.001",
			"pbrMetallicRoughness":{
				"baseColorTexture":{
					"index":1
				},
				"metallicFactor":0,
				"roughnessFactor":0.5
			}
		},
		{
			"doubleSided":true,
			"name":"Material.002",
			"pbrMetallicRoughness":{
				"baseColorTexture":{
					"index":2
				},
				"metallicFactor":0,
				"roughnessFactor":0.5
			}
		},
		{
			"doubleSided":true,
			"name":"Material.003",
			"pbrMetallicRoughness":{
				"baseColorTexture":{
					"index":3
				},
				"metallicFactor":0,
				"roughnessFactor":0.5
			}
		}
	],
	"meshes":[
		{
			"name":"Cube.002",
			"primitives":[
				{
					"attributes":{
						"POSITION":0,
						"TEXCOORD_0":1,
						"NORMAL":2
					},
					"indices":3,
					"material":0
				}
			]
		},
		{
			"name":"Cube.003",
			"primitives":[
				{
					"attributes":{
						"POSITION":4,
						"TEXCOORD_0":5,
						"NORMAL":6
					},
					"indices":7,
					"material":1
				}
			]
		},
		{
			"name":"Sphere",
			"primitives":[
				{
					"attributes":{
						"POSITION":8,
						"TEXCOORD_0":9,
						"NORMAL":10
					},
					"indices":11,
					"material":2
				}
			]
		},
		{
			"name":"Cone",
			"primitives":[
				{
					"attributes":{
						"POSITION":12,
						"TEXCOORD_0":13,
						"NORMAL":14
					},
					"indices":15,
					"material":3
				}
			]
		}
	],
	"textures":[
		{
			"sampler":0,
			"source":0
		},
		{
			"sampler":0,
			"source":0
		},
		{
			"sampler":0,
			"source":0
		},
		{
			"sampler":0,
			"source":0
		}
	],
	"images":[
		{
			"bufferView":4,
			"mimeType":"image/jpeg",
			"name":"Cute-Baby-Dragon-Clipart-Fantasy-Art-Graphics-63500793-4-580x435"
		}
	],
	"accessors":[
		{
			"bufferView":0,
			"componentType":5126,
			"count":7516,
			"max":[
				1.7917982339859009,
				0.8003643751144409,
				2.1478612422943115
			],
			"min":[
				-1.7917982339859009,
				-0.8669813871383667,
				-1.1941311359405518
			],
			"type":"VEC3"
		},
		{
			"bufferView":1,
			"componentType":5126,
			"count":7516,
			"type":"VEC2"
		},
		{
			"bufferView":2,
			"componentType":5126,
			"count":7516,
			"type":"VEC3"
		},
		{
			"bufferView":3,
			"componentType":5123,
			"count":39024,
			"type":"SCALAR"
		},
		{
			"bufferView":5,
			"componentType":5126,
			"count":25347,
			"max":[
				1.2112739086151123,
				1.2019615173339844,
				1.1959322690963745
			],
			"min":[
				-1.2112740278244019,
				-1.2952252626419067,
				-0.848201334476471
			],
			"type":"VEC3"
		},
		{
			"bufferView":6,
			"componentType":5126,
			"count":25347,
			"type":"VEC2"
		},
		{
			"bufferView":7,
			"componentType":5126,
			"count":25347,
			"type":"VEC3"
		},
		{
			"bufferView":8,
			"componentType":5123,
			"count":126312,
			"type":"SCALAR"
		},
		{
			"bufferView":9,
			"componentType":5126,
			"count":2440,
			"max":[
				0.9872310161590576,
				0.9975767135620117,
				0.9872307181358337
			],
			"min":[
				-0.9872305393218994,
				-0.9975767135620117,
				-0.9872310161590576
			],
			"type":"VEC3"
		},
		{
			"bufferView":10,
			"componentType":5126,
			"count":2440,
			"type":"VEC2"
		},
		{
			"bufferView":11,
			"componentType":5126,
			"count":2440,
			"type":"VEC3"
		},
		{
			"bufferView":12,
			"componentType":5123,
			"count":11904,
			"type":"SCALAR"
		},
		{
			"bufferView":13,
			"componentType":5126,
			"count":16384,
			"max":[
				34.48579406738281,
				3.045214891433716,
				2.5363123416900635
			],
			"min":[
				28.65519905090332,
				1.9516700506210327,
				1.7751752138137817
			],
			"type":"VEC3"
		},
		{
			"bufferView":14,
			"componentType":5126,
			"count":16384,
			"type":"VEC2"
		},
		{
			"bufferView":15,
			"componentType":5126,
			"count":16384,
			"type":"VEC3"
		},
		{
			"bufferView":16,
			"componentType":5123,
			"count":24576,
			"type":"SCALAR"
		}
	],
	"bufferViews":[
		{
			"buffer":0,
			"byteLength":90192,
			"byteOffset":0,
			"target":34962
		},
		{
			"buffer":0,
			"byteLength":60128,
			"byteOffset":90192,
			"target":34962
		},
		{
			"buffer":0,
			"byteLength":90192,
			"byteOffset":150320,
			"target":34962
		},
		{
			"buffer":0,
			"byteLength":78048,
			"byteOffset":240512,
			"target":34963
		},
		{
			"buffer":0,
			"byteLength":53937,
			"byteOffset":318560
		},
		{
			"buffer":0,
			"byteLength":304164,
			"byteOffset":372500,
			"target":34962
		},
		{
			"buffer":0,
			"byteLength":202776,
			"byteOffset":676664,
			"target":34962
		},
		{
			"buffer":0,
			"byteLength":304164,
			"byteOffset":879440,
			"target":34962
		},
		{
			"buffer":0,
			"byteLength":252624,
			"byteOffset":1183604,
			"target":34963
		},
		{
			"buffer":0,
			"byteLength":29280,
			"byteOffset":1436228,
			"target":34962
		},
		{
			"buffer":0,
			"byteLength":19520,
			"byteOffset":1465508,
			"target":34962
		},
		{
			"buffer":0,
			"byteLength":29280,
			"byteOffset":1485028,
			"target":34962
		},
		{
			"buffer":0,
			"byteLength":23808,
			"byteOffset":1514308,
			"target":34963
		},
		{
			"buffer":0,
			"byteLength":196608,
			"byteOffset":1538116,
			"target":34962
		},
		{
			"buffer":0,
			"byteLength":131072,
			"byteOffset":1734724,
			"target":34962
		},
		{
			"buffer":0,
			"byteLength":196608,
			"byteOffset":1865796,
			"target":34962
		},
		{
			"buffer":0,
			"byteLength":49152,
			"byteOffset":2062404,
			"target":34963
		}
	],
	"samplers":[
		{
			"magFilter":9729,
			"minFilter":9987
		}
	],
	"buffers":[
		{
			"byteLength":2111556,
			"uri":"data:application/octet-stream;base64,"
		}
	]
}
